<svg xmlns="http://www.w3.org/2000/svg" viewBox="0 0 256 256" role="img" aria-label="WhatsApp">
  <circle cx="128" cy="128" r="120" fill="#25D366"/>
  <path fill="#fff" d="M128 48c-43.1 0-78 34.6-78 77.2 0 13.6 3.6 26.8 10.4 38.4L48 208l45.7-12c11.2 6.1 23.8 9.3 36.7 9.3 43.1 0 78-34.6 78-77.2S171.1 48 128 48zm0 142c-11.3 0-22.3-3-31.9-8.7l-3.6-2.1-27.1 7.1 7.3-26.3-2.4-3.8c-6.3-9.8-9.6-21.1-9.6-32.7C60.7 89.5 90.8 60 128 60s67.3 29.5 67.3 65.8S165.2 190 128 190zm37.7-49.6c-2.1-1-12.3-6-14.2-6.7-1.9-.7-3.3-1-4.6 1-1.4 2-5.3 6.7-6.5 8.1-1.2 1.4-2.5 1.5-4.6.5-12.6-6.1-20.8-10.9-29.1-24.7-2.2-3.7 2.2-3.4 6.3-11.2.7-1.4.3-2.6-.2-3.6s-4.6-11-6.3-15c-1.7-4-3.4-3.4-4.6-3.5-1.2-.1-2.6-.1-4-.1s-3.6.5-5.4 2.5c-1.9 2-7.1 6.9-7.1 16.9s7.3 19.5 8.3 20.9c1 1.4 14.4 22 34.9 30.8 12.9 5.5 18 6 24.5 5 4-.6 12.3-5 14-9.8 1.7-4.8 1.7-8.9 1.2-9.8-.5-.9-1.9-1.4-4-2.4z"/>
</svg>
